<svg width="48" height="48" viewBox="0 0 48 48" fill="none" xmlns="http://www.w3.org/2000/svg">
<path d="M40 0C44.4183 0 48 3.58172 48 8V40C48 44.4183 44.4183 48 40 48H8C3.58172 48 0 44.4183 0 40V8C5.15405e-07 3.58172 3.58172 0 8 0H40Z" fill="#D4D4D4"/>
<path d="M40 0C44.4183 0 48 3.58172 48 8V40C48 44.4183 44.4183 48 40 48H8C3.58172 48 0 44.4183 0 40V8C5.15405e-07 3.58172 3.58172 0 8 0H40Z" stroke="#E5E7EB"/>
<path d="M31 31H17V17H31V31Z" stroke="#E5E7EB"/>
<g clip-path="url(#clip0_3_658)">
<path d="M17 19.625C17 18.6598 17.7848 17.875 18.75 17.875H29.25C30.2152 17.875 31 18.6598 31 19.625V28.375C31 29.3402 30.2152 30.125 29.25 30.125H18.75C17.7848 30.125 17 29.3402 17 28.375V19.625ZM25.8539 22.5371C25.7309 22.3566 25.5285 22.25 25.3125 22.25C25.0965 22.25 24.8914 22.3566 24.7711 22.5371L22.3922 26.0262L21.6676 25.1211C21.5418 24.9652 21.3531 24.875 21.1562 24.875C20.9594 24.875 20.768 24.9652 20.6449 25.1211L18.8949 27.3086C18.7363 27.5055 18.7063 27.7762 18.8156 28.0031C18.925 28.2301 19.1547 28.375 19.4062 28.375H22.0312H22.9062H28.5938C28.8371 28.375 29.0613 28.241 29.1734 28.025C29.2855 27.809 29.2719 27.5492 29.1352 27.3496L25.8539 22.5371ZM20.0625 22.25C20.4106 22.25 20.7444 22.1117 20.9906 21.8656C21.2367 21.6194 21.375 21.2856 21.375 20.9375C21.375 20.5894 21.2367 20.2556 20.9906 20.0094C20.7444 19.7633 20.4106 19.625 20.0625 19.625C19.7144 19.625 19.3806 19.7633 19.1344 20.0094C18.8883 20.2556 18.75 20.5894 18.75 20.9375C18.75 21.2856 18.8883 21.6194 19.1344 21.8656C19.3806 22.1117 19.7144 22.25 20.0625 22.25Z" fill="#737373"/>
</g>
<defs>
<clipPath id="clip0_3_658">
<path d="M17 17H31V31H17V17Z" fill="white"/>
</clipPath>
</defs>
</svg>
